<?xml version="1.0" encoding="utf-8"?>
<!-- Generator: Adobe Illustrator 16.0.0, SVG Export Plug-In . SVG Version: 6.00 Build 0)  -->
<!DOCTYPE svg PUBLIC "-//W3C//DTD SVG 1.1//EN" "http://www.w3.org/Graphics/SVG/1.1/DTD/svg11.dtd">
<svg version="1.1" id="Layer_1" xmlns="http://www.w3.org/2000/svg" xmlns:xlink="http://www.w3.org/1999/xlink" x="0px" y="0px"
	 width="40px" height="40px" viewBox="0 0 40 40" enable-background="new 0 0 40 40" xml:space="preserve">
<path d="M34.917,32.339l-2.661-4.313c-1.228-1.99-1.877-4.27-1.877-6.592v-3.778c0-5.815-4.869-10.549-10.85-10.549
	c-5.981,0-10.849,4.734-10.849,10.549v3.778c0,2.322-0.649,4.602-1.877,6.592L4.14,32.339c-0.145,0.232-0.147,0.523-0.011,0.758
	c0.138,0.237,0.397,0.384,0.675,0.384h29.448c0.279,0,0.538-0.146,0.676-0.384C35.065,32.862,35.062,32.571,34.917,32.339z
	 M6.174,31.973L8.131,28.8c1.373-2.225,2.099-4.771,2.099-7.366v-3.778c0-4.986,4.17-9.042,9.299-9.042s9.299,4.055,9.299,9.042
	v3.778c0,2.596,0.727,5.142,2.098,7.366l1.959,3.173H6.174L6.174,31.973z"/>
<path d="M19.529,1.832c-1.709,0-3.1,1.352-3.1,3.014v3.013c0,0.417,0.347,0.754,0.775,0.754s0.775-0.338,0.775-0.754V4.846
	c0-0.833,0.694-1.507,1.549-1.507c0.856,0,1.549,0.675,1.549,1.507v3.013c0,0.417,0.348,0.754,0.775,0.754
	c0.429,0,0.775-0.338,0.775-0.754V4.846C22.629,3.184,21.238,1.832,19.529,1.832z"/>
<path d="M22.883,32.345c-0.219-0.358-0.691-0.476-1.062-0.27c-0.37,0.211-0.495,0.674-0.278,1.032
	c0.203,0.333,0.313,0.732,0.313,1.126c0,1.246-1.043,2.261-2.325,2.261c-1.282,0-2.325-1.015-2.325-2.261
	c0-0.394,0.11-0.793,0.312-1.126c0.215-0.36,0.091-0.821-0.278-1.032c-0.373-0.206-0.844-0.089-1.061,0.27
	c-0.343,0.57-0.524,1.223-0.524,1.889c0,2.077,1.737,3.768,3.875,3.768s3.875-1.69,3.876-3.768
	C23.405,33.567,23.226,32.915,22.883,32.345z"/>
</svg>
