<?xml version="1.0" encoding="utf-8"?>
<!-- Generator: Adobe Illustrator 16.0.0, SVG Export Plug-In . SVG Version: 6.00 Build 0)  -->
<!DOCTYPE svg PUBLIC "-//W3C//DTD SVG 1.1//EN" "http://www.w3.org/Graphics/SVG/1.1/DTD/svg11.dtd">
<svg version="1.1" id="Layer_1" xmlns="http://www.w3.org/2000/svg" xmlns:xlink="http://www.w3.org/1999/xlink" x="0px" y="0px"
	 width="40px" height="40px" viewBox="0 0 40 40" enable-background="new 0 0 40 40" xml:space="preserve">
<path d="M33.594,1.887H6.443c-2.439,0-4.423,1.985-4.423,4.423v27.15c0,2.438,1.984,4.424,4.423,4.424
	c0.405,0,0.732-0.327,0.732-0.731s-0.327-0.734-0.732-0.734c-1.631,0-2.958-1.326-2.958-2.958V6.311
	c0-1.631,1.327-2.959,2.958-2.959h27.151c1.631,0,2.958,1.328,2.958,2.959v27.15c0,1.632-1.327,2.958-2.958,2.958H14.28
	c-0.404,0-0.732,0.33-0.732,0.734s0.328,0.731,0.732,0.731h19.314c2.439,0,4.424-1.985,4.424-4.424V6.311
	C38.018,3.872,36.033,1.887,33.594,1.887z"/>
<rect x="17.675" y="13.152" width="1.527" height="7.323"/>
<rect x="20.313" y="18.324" transform="matrix(-0.5934 0.8049 -0.8049 -0.5934 51.2784 18.0663)" width="1.526" height="7.322"/>
</svg>
