<?xml version="1.0" encoding="utf-8"?>
<!-- Generator: Adobe Illustrator 16.0.0, SVG Export Plug-In . SVG Version: 6.00 Build 0)  -->
<!DOCTYPE svg PUBLIC "-//W3C//DTD SVG 1.1//EN" "http://www.w3.org/Graphics/SVG/1.1/DTD/svg11.dtd">
<svg version="1.1" id="Layer_1" xmlns="http://www.w3.org/2000/svg" xmlns:xlink="http://www.w3.org/1999/xlink" x="0px" y="0px"
	 width="40px" height="40px" viewBox="0 0 40 40" enable-background="new 0 0 40 40" xml:space="preserve">
<path fill="#131313" d="M36.139,16.167l-2.529-0.429c-0.265-0.851-0.604-1.672-1.017-2.453l1.49-2.086
	c0.634-0.891,0.534-2.101-0.24-2.869L31.6,6.087c-0.423-0.422-0.979-0.654-1.573-0.654c-0.471,0-0.913,0.141-1.29,0.412l-2.091,1.49
	C25.831,6.907,24.982,6.552,24.1,6.29l-0.42-2.5c-0.18-1.076-1.107-1.86-2.2-1.86h-3.168c-1.091,0-2.016,0.784-2.199,1.86
	L15.678,6.35c-0.845,0.262-1.664,0.606-2.449,1.028l-2.071-1.49c-0.375-0.269-0.829-0.412-1.296-0.412
	c-0.594,0-1.159,0.234-1.573,0.656L6.037,8.376c-0.766,0.766-0.874,1.981-0.24,2.869l1.503,2.118
	c-0.412,0.791-0.745,1.612-0.998,2.463l-2.502,0.422c-1.076,0.18-1.858,1.107-1.858,2.2v3.169c0,1.092,0.784,2.021,1.858,2.201
	l2.561,0.436c0.262,0.843,0.61,1.664,1.031,2.444l-1.482,2.067c-0.633,0.886-0.534,2.1,0.24,2.869l2.244,2.244
	c0.422,0.418,0.979,0.655,1.575,0.655c0.466,0,0.911-0.143,1.286-0.412l2.119-1.508c0.758,0.398,1.556,0.727,2.376,0.979
	l0.423,2.532c0.18,1.075,1.105,1.857,2.198,1.857h3.177c1.093,0,2.018-0.782,2.2-1.857l0.428-2.532
	c0.85-0.261,1.669-0.6,2.456-1.016l2.082,1.488c0.376,0.271,0.828,0.414,1.295,0.414l0,0c0.597,0,1.153-0.23,1.573-0.655
	l2.244-2.243c0.77-0.77,0.873-1.984,0.239-2.87l-1.488-2.093c0.412-0.791,0.76-1.613,1.017-2.456l2.527-0.422
	c1.076-0.178,1.859-1.105,1.859-2.197v-3.172C37.996,17.272,37.215,16.347,36.139,16.167z M35.964,21.534
	c0,0.099-0.066,0.182-0.165,0.199l-3.163,0.525c-0.396,0.065-0.716,0.36-0.811,0.745c-0.288,1.105-0.725,2.169-1.313,3.154
	c-0.202,0.348-0.186,0.774,0.047,1.105l1.857,2.62c0.055,0.076,0.047,0.19-0.021,0.255l-2.246,2.246
	c-0.05,0.051-0.106,0.062-0.142,0.062c-0.045,0-0.082-0.019-0.111-0.04l-2.614-1.861c-0.323-0.233-0.76-0.245-1.107-0.045
	c-0.985,0.585-2.047,1.022-3.154,1.309c-0.391,0.1-0.684,0.423-0.745,0.812l-0.533,3.163c-0.016,0.099-0.101,0.169-0.198,0.169
	h-3.168c-0.099,0-0.18-0.07-0.197-0.169L17.65,32.62c-0.068-0.397-0.362-0.712-0.747-0.812c-1.077-0.277-2.115-0.708-3.084-1.268
	c-0.161-0.086-0.339-0.134-0.513-0.134c-0.203,0-0.414,0.058-0.585,0.188l-2.635,1.875c-0.037,0.025-0.075,0.037-0.114,0.037
	c-0.031,0-0.089-0.008-0.143-0.057l-2.244-2.244c-0.068-0.07-0.077-0.175-0.025-0.257l1.855-2.6
	c0.231-0.332,0.248-0.766,0.043-1.113c-0.586-0.978-1.041-2.042-1.325-3.147c-0.105-0.385-0.42-0.676-0.813-0.744l-3.183-0.542
	c-0.1-0.018-0.166-0.1-0.166-0.199v-3.169c0-0.099,0.066-0.182,0.166-0.199l3.138-0.526c0.399-0.066,0.724-0.36,0.819-0.751
	c0.28-1.107,0.708-2.175,1.288-3.163c0.203-0.345,0.182-0.776-0.05-1.099l-1.875-2.635C7.403,9.986,7.411,9.875,7.477,9.807
	l2.246-2.246c0.051-0.052,0.105-0.058,0.143-0.058c0.043,0,0.083,0.015,0.114,0.038l2.598,1.854
	c0.332,0.231,0.768,0.246,1.114,0.043c0.979-0.587,2.041-1.039,3.146-1.324c0.385-0.106,0.679-0.422,0.748-0.813l0.542-3.183
	c0.015-0.1,0.097-0.166,0.197-0.166h3.169c0.1,0,0.183,0.066,0.194,0.166l0.53,3.138c0.066,0.397,0.36,0.724,0.751,0.819
	c1.137,0.286,2.221,0.729,3.23,1.325c0.344,0.203,0.775,0.19,1.104-0.043l2.598-1.869c0.039-0.021,0.078-0.037,0.116-0.037
	c0.029,0,0.092,0.008,0.141,0.06l2.246,2.246c0.068,0.066,0.076,0.174,0.023,0.257l-1.861,2.612
	c-0.233,0.323-0.249,0.758-0.043,1.105c0.583,0.985,1.02,2.045,1.308,3.152c0.1,0.396,0.42,0.687,0.815,0.747l3.158,0.534
	c0.1,0.017,0.165,0.1,0.165,0.197v3.17h-0.004V21.534z"/>
<path fill="#131313" d="M19.962,12.17c-4.289,0-7.776,3.485-7.776,7.778c0,4.289,3.487,7.775,7.776,7.775
	c4.291,0,7.779-3.486,7.779-7.775C27.741,15.654,24.253,12.17,19.962,12.17z M19.962,25.689c-3.169,0-5.744-2.574-5.744-5.741
	c0-3.171,2.575-5.746,5.744-5.746c3.171,0,5.747,2.575,5.747,5.746C25.709,23.115,23.134,25.689,19.962,25.689z"/>
</svg>
